<svg width="100" height="100" viewBox="0 0 100 100" fill="none" xmlns="http://www.w3.org/2000/svg">
<path d="M100 50C100 77.6142 77.6142 100 50 100C22.3858 100 0 77.6142 0 50C0 22.3858 22.3858 0 50 0C77.6142 0 100 22.3858 100 50Z" fill="#605BFF"/>
<path d="M73.6985 80.6174C73.6985 78.1951 73.1086 76.2349 71.119 76.2349H29.8811C27.8916 76.2349 27.3016 78.1951 27.3016 80.6174C27.3016 83.0398 27.8916 85 29.8811 85H71.119C73.1086 85 73.6985 83.0318 73.6985 80.6174Z" fill="white"/>
<path d="M16.2617 43.4405C16.3341 43.4405 16.3985 43.4405 16.4709 43.4324L27.2486 68.7878H73.7513L84.529 43.4324C84.6013 43.4324 84.6657 43.4405 84.7381 43.4405C87.6426 43.4405 90 41.0865 90 38.1862C90 35.2859 87.6425 32.932 84.7381 32.932C81.8337 32.932 79.4763 35.2859 79.4763 38.1862C79.4763 38.7486 79.5649 39.2949 79.7338 39.8011L67.0458 47.2084L53.4084 24.6328C54.8245 23.6928 55.7659 22.078 55.7659 20.2543C55.7659 17.354 53.4084 15 50.504 15C47.5996 15 45.2422 17.354 45.2422 20.2543C45.2422 22.086 46.1755 23.6928 47.5996 24.6328L33.9623 47.2084L21.2743 39.8011C21.4352 39.2949 21.5317 38.7486 21.5317 38.1862C21.5317 35.2859 19.1744 32.932 16.2699 32.932C13.3574 32.932 11 35.2859 11 38.1862C11 41.0865 13.3572 43.4405 16.2617 43.4405Z" fill="white"/>
</svg>
