<svg width="19" height="19" viewBox="0 0 19 19" fill="none" xmlns="http://www.w3.org/2000/svg">
<path d="M10.0838 0.608119C10.9474 -0.201061 12.28 -0.197571 13.1389 0.587909L13.2641 0.711599L18.0291 5.79715C18.1491 5.92522 18.2537 6.06688 18.3408 6.21925C18.9305 7.25125 18.6132 8.5536 17.6403 9.2045L17.5036 9.2891L12.6071 12.0871C12.4893 12.1544 12.3926 12.252 12.3264 12.369L12.2826 12.4602L10.4805 16.9738C10.2941 17.4407 9.71883 17.5876 9.33333 17.2955L9.25373 17.2262L6.016 13.99L1.06492 18.9491L0 18.9458L0.00203991 17.8907L4.955 12.929L1.75011 9.7262C1.39455 9.3708 1.48642 8.7842 1.90688 8.545L2.00197 8.4993L6.49724 6.7027C6.62873 6.65016 6.74193 6.56178 6.82463 6.44858L6.88063 6.3592L9.63693 1.19118C9.75293 0.973659 9.90393 0.776679 10.0838 0.608119Z" fill="#7C7B98"/>
</svg>
