<svg width="20" height="20" viewBox="0 0 20 20" fill="none" xmlns="http://www.w3.org/2000/svg">
<path d="M1.84375 11.125C2.30974 11.125 2.6875 11.5028 2.6875 11.9688V15.3438C2.6875 16.4311 3.56894 17.3125 4.65625 17.3125H8.03125C8.49724 17.3125 8.875 17.6903 8.875 18.1562C8.875 18.6222 8.49724 19 8.03125 19H4.65625C2.63695 19 1 17.363 1 15.3438V11.9688C1 11.5028 1.37776 11.125 1.84375 11.125ZM18.1562 11.125C18.5834 11.125 18.9364 11.4424 18.9923 11.8543L19 11.9688V15.3438C19 17.2934 17.474 18.8867 15.5512 18.9942L15.3438 19H11.9688C11.5028 19 11.125 18.6222 11.125 18.1562C11.125 17.7291 11.4424 17.3761 11.8543 17.3202L11.9688 17.3125H15.3438C16.3767 17.3125 17.2238 16.517 17.306 15.5052L17.3125 15.3438V11.9688C17.3125 11.5028 17.6903 11.125 18.1562 11.125ZM8.03125 1C8.49724 1 8.875 1.37776 8.875 1.84375C8.875 2.2709 8.55757 2.62393 8.14574 2.6798L8.03125 2.6875H4.65625C3.6233 2.6875 2.77616 3.483 2.69403 4.49478L2.6875 4.65625V8.03125C2.6875 8.49724 2.30974 8.875 1.84375 8.875C1.4166 8.875 1.06357 8.55757 1.0077 8.14574L1 8.03125V4.65625C1 2.70658 2.52601 1.11335 4.44877 1.00579L4.65625 1H8.03125ZM15.3438 1C17.2934 1 18.8867 2.52601 18.9942 4.44877L19 4.65625V8.03125C19 8.49724 18.6222 8.875 18.1562 8.875C17.7291 8.875 17.3761 8.55757 17.3202 8.14574L17.3125 8.03125V4.65625C17.3125 3.6233 16.517 2.77616 15.5052 2.69403L15.3438 2.6875H11.9688C11.5028 2.6875 11.125 2.30974 11.125 1.84375C11.125 1.4166 11.4424 1.06357 11.8543 1.0077L11.9688 1H15.3438Z" fill="#7C7B98" stroke="#7C7B98"/>
</svg>
