<svg width="20" height="20" viewBox="0 0 20 20" fill="none" xmlns="http://www.w3.org/2000/svg">
<path d="M8.03125 19C7.56526 19 7.1875 18.6222 7.1875 18.1562V14.7812C7.1875 13.6939 6.30606 12.8125 5.21875 12.8125H1.84375C1.37776 12.8125 1 12.4347 1 11.9688C1 11.5028 1.37776 11.125 1.84375 11.125H5.21875C7.23805 11.125 8.875 12.762 8.875 14.7812V18.1562C8.875 18.6222 8.49724 19 8.03125 19ZM11.9688 19C11.5416 19 11.1886 18.6826 11.1327 18.2707L11.125 18.1562V14.7812C11.125 12.8316 12.651 11.2383 14.5738 11.1308L14.7812 11.125H18.1562C18.6222 11.125 19 11.5028 19 11.9688C19 12.3959 18.6826 12.7489 18.2707 12.8048L18.1562 12.8125H14.7812C13.7483 12.8125 12.9012 13.608 12.819 14.6198L12.8125 14.7812V18.1562C12.8125 18.6222 12.4347 19 11.9688 19ZM1.84375 8.875C1.37776 8.875 1 8.49724 1 8.03125C1 7.6041 1.31743 7.25107 1.72926 7.1952L1.84375 7.1875H5.21875C6.2517 7.1875 7.09884 6.392 7.18097 5.38022L7.1875 5.21875V1.84375C7.1875 1.37776 7.56526 1 8.03125 1C8.4584 1 8.81143 1.31743 8.8673 1.72926L8.875 1.84375V5.21875C8.875 7.16842 7.34899 8.76165 5.42623 8.86921L5.21875 8.875H1.84375ZM14.7812 8.875C12.8316 8.875 11.2383 7.34899 11.1308 5.42623L11.125 5.21875V1.84375C11.125 1.37776 11.5028 1 11.9688 1C12.3959 1 12.7489 1.31743 12.8048 1.72926L12.8125 1.84375V5.21875C12.8125 6.2517 13.608 7.09884 14.6198 7.18097L14.7812 7.1875H18.1562C18.6222 7.1875 19 7.56526 19 8.03125C19 8.4584 18.6826 8.81143 18.2707 8.8673L18.1562 8.875H14.7812Z" fill="#7C7B98" stroke="#7C7B98"/>
</svg>
