<svg width="26" height="26" viewBox="0 0 26 26" fill="none" xmlns="http://www.w3.org/2000/svg">
<path d="M5.20001 18.8499V14.5144L10.411 17.5061C12.0143 18.4265 13.9858 18.4265 15.5891 17.5061L20.8 14.5144V18.8499C20.8 19.0223 20.7315 19.1876 20.6097 19.3096L20.6076 19.3115L20.6045 19.3145L20.5957 19.3234L20.5661 19.3516C20.5413 19.375 20.5063 19.4073 20.4612 19.4474C20.3711 19.5276 20.2405 19.6386 20.0706 19.7702C19.731 20.0329 19.2333 20.3788 18.5872 20.7235C17.2943 21.413 15.4023 22.0999 13 22.0999C10.5978 22.0999 8.70579 21.413 7.41289 20.7235C6.76675 20.3788 6.26895 20.0329 5.92944 19.7702C5.75957 19.6386 5.62893 19.5276 5.53878 19.4474C5.4937 19.4073 5.45869 19.375 5.43391 19.3516L5.40442 19.3234C5.27721 19.1988 5.20001 19.029 5.20001 18.8499Z" fill="#FF8F6B"/>
<path d="M24.3736 10.9638L14.9418 16.3787C13.7393 17.0691 12.2607 17.0691 11.0582 16.3787L2.59999 11.5228V17.55C2.59999 17.9089 2.30897 18.2 1.94999 18.2C1.59101 18.2 1.29999 17.9089 1.29999 17.55V10.4001C1.29999 10.1531 1.43776 9.93815 1.64067 9.82817L11.0582 4.42134C11.5091 4.16245 11.9989 4.00065 12.4984 3.93592C12.6566 3.91542 12.8158 3.90466 12.9751 3.90364C13.4861 3.90038 13.9976 3.99744 14.479 4.19482C14.6368 4.25954 14.7915 4.33505 14.9418 4.42134L24.3737 9.83639C24.5754 9.95228 24.7 10.1673 24.7 10.4001C24.7 10.6329 24.5754 10.8479 24.3736 10.9638Z" fill="#FF8F6B"/>
</svg>
