<svg width="24" height="24" viewBox="0 0 24 24" fill="none" xmlns="http://www.w3.org/2000/svg">
<path d="M4.79999 17.3999V13.3979L9.6101 16.1595C11.0901 17.0091 12.9099 17.0091 14.3899 16.1595L19.2 13.3979V17.3999C19.2 17.5591 19.1367 17.7117 19.0243 17.8243L19.0224 17.8261L19.0195 17.8288L19.0113 17.837L18.9841 17.863C18.9612 17.8846 18.9289 17.9145 18.8873 17.9515C18.8041 18.0255 18.6835 18.128 18.5267 18.2494C18.2132 18.492 17.7537 18.8113 17.1573 19.1294C15.9639 19.7659 14.2175 20.4 12 20.4C9.78252 20.4 8.03609 19.7659 6.84264 19.1294C6.2462 18.8113 5.7867 18.492 5.47331 18.2494C5.3165 18.128 5.19592 18.0255 5.1127 17.9515C5.07108 17.9145 5.03876 17.8846 5.01589 17.863L4.98868 17.837C4.87124 17.722 4.79999 17.5653 4.79999 17.3999Z" fill="#5B93FF"/>
<path d="M22.4987 10.1204L13.7925 15.1188C12.6825 15.7561 11.3176 15.7561 10.2076 15.1188L2.40001 10.6364V16.2C2.40001 16.5313 2.13138 16.8 1.80001 16.8C1.46864 16.8 1.20001 16.5313 1.20001 16.2V9.60007C1.20001 9.37206 1.32719 9.17366 1.51448 9.07214L10.2076 4.08122C10.6238 3.84224 11.0759 3.69289 11.537 3.63314C11.683 3.61422 11.83 3.60428 11.977 3.60334C12.4487 3.60033 12.9209 3.68992 13.3653 3.87212C13.5109 3.93187 13.6537 4.00157 13.7925 4.08122L22.4988 9.07972C22.6851 9.1867 22.8 9.38518 22.8 9.60007C22.8 9.81494 22.6851 10.0134 22.4987 10.1204Z" fill="#5B93FF"/>
</svg>
