<svg width="100" height="100" viewBox="0 0 100 100" fill="none" xmlns="http://www.w3.org/2000/svg">
<path d="M100 50C100 77.6142 77.6142 100 50 100C22.3858 100 0 77.6142 0 50C0 22.3858 22.3858 0 50 0C77.6142 0 100 22.3858 100 50Z" fill="#605BFF"/>
<path d="M67.2382 71.8696C67.2382 70.1393 66.8125 68.7392 65.377 68.7392H35.6231C34.1876 68.7392 33.7619 70.1393 33.7619 71.8696C33.7619 73.5999 34.1876 75 35.6231 75H65.377C66.8125 75 67.2382 73.5942 67.2382 71.8696Z" fill="white"/>
<path d="M25.7964 45.3146C25.8487 45.3146 25.8951 45.3146 25.9473 45.3089L33.7237 63.4199H67.2762L75.0525 45.3089C75.1047 45.3089 75.1512 45.3146 75.2035 45.3146C77.2991 45.3146 79 43.6332 79 41.5616C79 39.4899 77.2991 37.8085 75.2035 37.8085C73.1079 37.8085 71.4069 39.4899 71.4069 41.5616C71.4069 41.9633 71.4709 42.3535 71.5927 42.715L62.4381 48.006L52.5985 31.8806C53.6202 31.2092 54.2994 30.0557 54.2994 28.753C54.2994 26.6814 52.5985 25 50.5029 25C48.4073 25 46.7064 26.6814 46.7064 28.753C46.7064 30.0614 47.3798 31.2092 48.4073 31.8806L38.5677 48.006L29.4131 42.715C29.5292 42.3535 29.5989 41.9633 29.5989 41.5616C29.5989 39.4899 27.898 37.8085 25.8023 37.8085C23.7009 37.8085 22 39.4899 22 41.5616C22 43.6332 23.7008 45.3146 25.7964 45.3146Z" fill="white"/>
</svg>
