<svg width="24" height="25" viewBox="0 0 24 25" fill="none" xmlns="http://www.w3.org/2000/svg">
<path d="M15.538 19.7903L15.2473 21.1012C15.0241 22.1047 14.2013 22.8313 13.2285 22.909L13.0554 22.9159H10.9437C9.95426 22.9159 9.0885 22.2441 8.79678 21.2738L8.75135 21.0996L8.461 19.7903H15.538Z" fill="#5B93FF"/>
<path d="M12 2.08398C16.0041 2.08398 19.25 5.46517 19.25 9.63607C19.25 11.8617 18.3144 13.8999 16.4846 15.7201C16.4493 15.7553 16.4247 15.8003 16.4137 15.8499L15.886 18.2277H12.75V11.1978C12.75 10.7664 12.4142 10.4166 12 10.4166C11.5858 10.4166 11.25 10.7664 11.25 11.1978V18.2277H8.114L7.58801 15.85C7.57702 15.8004 7.55234 15.7553 7.51701 15.7202C5.68616 13.8999 4.75 11.8617 4.75 9.63607C4.75 5.46516 7.99593 2.08398 12 2.08398ZM11.25 7.03165V8.59418C11.25 9.02565 11.5858 9.37543 12 9.37543C12.4142 9.37543 12.75 9.02565 12.75 8.59418V7.03165C12.75 6.60017 12.4142 6.2504 12 6.2504C11.5858 6.2504 11.25 6.60017 11.25 7.03165ZM16.2803 8.55804C15.9874 8.25294 15.5126 8.25294 15.2197 8.55804L14.159 9.66292C13.8661 9.96802 13.8661 10.4626 14.159 10.7677C14.4519 11.0728 14.9268 11.0728 15.2197 10.7677L16.2803 9.66289C16.5732 9.3578 16.5732 8.86314 16.2803 8.55804ZM8.78032 8.55804C8.48743 8.25294 8.01255 8.25294 7.71966 8.55804C7.42677 8.86314 7.42677 9.3578 7.71966 9.66289L8.78034 10.7677C9.07324 11.0728 9.54811 11.0728 9.841 10.7677C10.1339 10.4626 10.1339 9.96802 9.841 9.66292L8.78032 8.55804Z" fill="#5B93FF"/>
</svg>
