<svg width="8" height="8" viewBox="0 0 8 8" fill="none" xmlns="http://www.w3.org/2000/svg">
<path d="M7.70463 4.754C7.65943 4.79267 7.48875 4.958 7.32976 5.094C6.39766 5.94933 3.9661 7.34933 2.69342 7.77667C2.50015 7.84533 2.0115 7.99067 1.75041 8C1.50024 8 1.26176 7.952 1.03419 7.85467C0.750511 7.71867 0.522942 7.50467 0.398246 7.252C0.317974 7.07667 0.193278 6.552 0.193278 6.54267C0.0685826 5.96867 0 5.036 0 4.00533C0 3.02333 0.0685826 2.12867 0.170677 1.546C0.182367 1.53667 0.307063 0.884666 0.443449 0.661333C0.693619 0.253333 1.18227 -2.38419e-07 1.70521 -2.38419e-07H1.75041C2.09099 0.00999976 2.80721 0.263333 2.80721 0.272667C4.0113 0.700667 6.38675 2.032 7.34145 2.91667C7.34145 2.91667 7.61033 3.144 7.72723 3.286C7.9096 3.49 8 3.74267 8 3.99533C8 4.27733 7.89791 4.54 7.70463 4.754Z" fill="#7C7B98"/>
</svg>
