<svg width="8" height="8" viewBox="0 0 8 8" fill="none" xmlns="http://www.w3.org/2000/svg">
<path d="M0.295372 3.246C0.340575 3.20733 0.511252 3.042 0.670238 2.906C1.60234 2.05067 4.0339 0.650667 5.30658 0.223333C5.49985 0.154667 5.9885 0.00933333 6.24959 0C6.49976 0 6.73824 0.048 6.96581 0.145333C7.24949 0.281333 7.47706 0.495333 7.60175 0.748C7.68203 0.923333 7.80672 1.448 7.80672 1.45733C7.93142 2.03133 8 2.964 8 3.99467C8 4.97667 7.93142 5.87133 7.82932 6.454C7.81763 6.46333 7.69294 7.11533 7.55655 7.33867C7.30638 7.74667 6.81773 8 6.29479 8H6.24959C5.90901 7.99 5.19279 7.73667 5.19279 7.72733C3.9887 7.29933 1.61325 5.968 0.658549 5.08333C0.658549 5.08333 0.389673 4.856 0.272771 4.714C0.0904041 4.51 0 4.25733 0 4.00467C0 3.72267 0.102094 3.46 0.295372 3.246Z" fill="#7C7B98"/>
</svg>
