<svg width="100" height="38" viewBox="0 0 100 38" fill="none" xmlns="http://www.w3.org/2000/svg">
<g clip-path="url(#clip0_167_110)">
<path d="M51.6281 12.301L56.3857 11.9935C56.4942 12.7714 56.6932 13.3502 57.0188 13.7663C57.5434 14.4175 58.267 14.7431 59.2258 14.7431C59.9313 14.7431 60.492 14.5803 60.8719 14.2366C61.2337 13.9653 61.4508 13.5311 61.4508 13.0789C61.4508 12.6447 61.2518 12.2287 60.9081 11.9573C60.5463 11.6317 59.6961 11.3061 58.3575 11.0166C56.1686 10.5282 54.5948 9.877 53.6722 9.04487C52.7496 8.26701 52.225 7.12736 52.2612 5.91534C52.2612 5.08322 52.5145 4.25109 52.9848 3.56368C53.5275 2.78582 54.2692 2.17077 55.1556 1.82706C56.1143 1.411 57.453 1.19392 59.1353 1.19392C61.1975 1.19392 62.7714 1.57381 63.8567 2.35167C64.9421 3.11144 65.5934 4.34154 65.7923 6.02388L61.089 6.29523C60.9624 5.57164 60.7091 5.04704 60.2931 4.70333C59.877 4.35963 59.3343 4.19682 58.6288 4.19682C58.0499 4.19682 57.6158 4.32345 57.3263 4.55861C57.055 4.77569 56.8741 5.10131 56.8922 5.4631C56.8922 5.73445 57.0369 5.9877 57.254 6.15051C57.4892 6.36759 58.0499 6.56657 58.9363 6.74747C61.1252 7.2178 62.6809 7.68814 63.6397 8.17656C64.5984 8.66498 65.2858 9.26194 65.7019 9.96744C66.136 10.691 66.3531 11.5232 66.335 12.3734C66.335 13.3864 66.0456 14.3994 65.4667 15.2496C64.8698 16.136 64.0376 16.8235 63.0608 17.2395C62.0297 17.6918 60.7272 17.9269 59.1715 17.9269C56.4219 17.9269 54.5224 17.4023 53.4551 16.335C52.3878 15.2677 51.7547 13.9291 51.6281 12.301ZM1.13965 17.6556V1.48336H9.47902C11.0166 1.48336 12.2106 1.60999 13.0246 1.88133C13.8206 2.13459 14.5261 2.65919 14.9964 3.36469C15.521 4.14255 15.7742 5.04704 15.7562 5.9877C15.8104 7.5796 14.9964 9.09914 13.6035 9.89509C13.0608 10.2026 12.4638 10.4197 11.8488 10.5282C12.301 10.6549 12.7533 10.8719 13.1512 11.1252C13.4588 11.3784 13.712 11.6679 13.9472 11.9754C14.2185 12.2829 14.4537 12.6266 14.6527 12.9884L17.0767 17.6737H11.3965L8.71925 12.699C8.37554 12.0659 8.08611 11.6498 7.81476 11.4508C7.45297 11.1975 7.01881 11.0709 6.58466 11.0709H6.15051V17.6375H1.13965V17.6556ZM6.15051 8.03184H8.26701C8.71925 7.99566 9.1534 7.9233 9.58756 7.81477C9.91317 7.7605 10.2026 7.5796 10.4016 7.30825C10.89 6.65702 10.8177 5.73445 10.2207 5.17367C9.89508 4.90232 9.26194 4.7576 8.35745 4.7576H6.15051V8.03184ZM0 31.5123L4.7576 31.2048C4.86614 31.9826 5.06512 32.5615 5.39074 32.9776C5.89725 33.6288 6.63893 33.9725 7.59769 33.9725C8.30318 33.9725 8.86397 33.8097 9.24385 33.466C9.60564 33.1766 9.82272 32.7605 9.82272 32.3083C9.82272 31.8741 9.62373 31.458 9.28003 31.1867C8.91824 30.8611 8.06802 30.5355 6.71129 30.246C4.52243 29.7576 2.94863 29.1064 2.02605 28.2743C1.10347 27.4964 0.578871 26.3567 0.615051 25.1447C0.615051 24.3126 0.868307 23.4805 1.33864 22.7931C1.88133 22.0152 2.62301 21.4002 3.50941 21.0565C4.46816 20.6404 5.8068 20.4233 7.48915 20.4233C9.55138 20.4233 11.1252 20.8032 12.2106 21.5811C13.2959 22.3589 13.9291 23.5709 14.1281 25.2533L9.42475 25.5246C9.29812 24.801 9.04486 24.2764 8.6288 23.9327C8.23083 23.589 7.67004 23.4262 6.96454 23.4443C6.38567 23.4443 5.95152 23.5709 5.66208 23.8242C5.37265 24.0413 5.20984 24.3669 5.22793 24.7287C5.22793 25 5.37265 25.2533 5.58973 25.4161C5.82489 25.6332 6.38567 25.8321 7.27207 26.013C9.46093 26.4834 11.0166 26.9537 11.9754 27.4421C12.9342 27.9305 13.6216 28.5275 14.0376 29.233C14.4718 29.9566 14.6889 30.7887 14.6889 31.6209C14.6889 32.6339 14.3813 33.6288 13.8206 34.479C13.2236 35.3654 12.3915 36.0528 11.4146 36.4689C10.3835 36.9211 9.08104 37.1563 7.52533 37.1563C4.77569 37.1563 2.87627 36.6317 1.80897 35.5644C0.741679 34.479 0.144718 33.1404 0 31.5123H0Z" fill="#7C7B98"/>
<path d="M24.0596 30.246L28.4373 31.5666C28.2021 32.67 27.7137 33.7192 27.0444 34.6418C26.4293 35.4559 25.6153 36.089 24.6927 36.5051C23.752 36.9211 22.5581 37.1382 21.1109 37.1382C19.3562 37.1382 17.9091 36.8849 16.8056 36.3784C15.684 35.8719 14.7253 34.9674 13.9112 33.6831C13.0972 32.3987 12.6992 30.7525 12.6992 28.7446C12.6992 26.0673 13.4047 24.0051 14.8338 22.576C16.2629 21.1469 18.2709 20.4233 20.8758 20.4233C22.9199 20.4233 24.5118 20.8394 25.6876 21.6534C26.8454 22.4855 27.7137 23.7518 28.2926 25.4522L23.8787 26.4291C23.7701 26.0492 23.6073 25.6693 23.3902 25.3437C23.1189 24.9638 22.7752 24.6744 22.3591 24.4573C21.9431 24.2402 21.4727 24.1498 21.0024 24.1498C19.8627 24.1498 18.9944 24.602 18.3975 25.5246C17.9452 26.1939 17.7101 27.2612 17.7101 28.7084C17.7101 30.4993 17.9814 31.7294 18.5241 32.3987C19.0668 33.068 19.8266 33.3936 20.8215 33.3936C21.7803 33.3936 22.5038 33.1223 22.9923 32.5977C23.4807 32.0369 23.8425 31.259 24.0596 30.246ZM34.2803 20.6946H39.273V26.3567H44.7361V20.6946H49.7651V36.8669H44.7361V30.3184H39.273V36.8669H34.2803V20.6946V20.6946Z" fill="#7C7B98"/>
<path d="M49.0776 28.7808C49.0776 26.1397 49.8193 24.0774 51.2846 22.6122C52.7499 21.1469 54.8121 20.4052 57.4351 20.4052C60.1305 20.4052 62.1927 21.1288 63.658 22.576C65.1232 24.0232 65.8468 26.0492 65.8468 28.6541C65.8468 30.5535 65.5212 32.0912 64.8881 33.3032C64.273 34.4971 63.3143 35.474 62.1384 36.1252C60.9264 36.7945 59.425 37.1382 57.6341 37.1382C55.807 37.1382 54.3056 36.8488 53.1116 36.2699C51.8815 35.6549 50.8685 34.6961 50.1992 33.5203C49.4575 32.254 49.0776 30.6802 49.0776 28.7808ZM54.0704 28.7988C54.0704 30.4269 54.3779 31.6028 54.9749 32.3263C55.5718 33.0318 56.404 33.3936 57.4532 33.3936C58.5205 33.3936 59.3526 33.0499 59.9496 32.3444C60.5465 31.6389 60.836 30.3907 60.836 28.5818C60.836 27.0622 60.5284 25.9407 59.9134 25.2533C59.2983 24.5478 58.4662 24.2041 57.417 24.2041C56.4944 24.1679 55.608 24.5658 54.993 25.2713C54.3779 25.9768 54.0704 27.1527 54.0704 28.7988V28.7988ZM70.9662 28.7808C70.9662 26.1397 71.7079 24.0774 73.1732 22.6122C74.6384 21.1469 76.7006 20.4052 79.3237 20.4052C82.019 20.4052 84.0993 21.1288 85.5465 22.576C86.9937 24.0232 87.7354 26.0492 87.7354 28.6541C87.7354 30.5535 87.4098 32.0912 86.7766 33.3032C86.1616 34.4971 85.2028 35.474 84.027 36.1252C82.815 36.7945 81.3135 37.1382 79.5226 37.1382C77.6956 37.1382 76.1941 36.8488 75.0002 36.2699C73.7701 35.6549 72.7571 34.6961 72.0878 33.5203C71.3461 32.254 70.9662 30.6802 70.9662 28.7808V28.7808ZM75.959 28.7988C75.959 30.4269 76.2665 31.6028 76.8635 32.3263C77.4604 33.0318 78.2925 33.3936 79.3418 33.3936C80.409 33.3936 81.2412 33.0499 81.8381 32.3444C82.4351 31.6389 82.7245 30.3907 82.7245 28.5818C82.7245 27.0622 82.417 25.9407 81.802 25.2533C81.1869 24.5478 80.3548 24.2041 79.3056 24.2041C78.383 24.1679 77.4785 24.5658 76.8815 25.2713C76.2665 25.9768 75.959 27.1527 75.959 28.7988V28.7988Z" fill="#7C7B98"/>
<path d="M87.2105 20.6946H92.2032V32.8871H99.9999V36.8669H87.1924V20.6946H87.2105Z" fill="#7C7B98"/>
<path d="M81.7075 19.7613C86.7342 15.9734 88.2842 9.55211 85.1697 5.41908C82.0551 1.28606 75.4553 1.00635 70.4287 4.79434C65.4021 8.58233 63.852 15.0036 66.9666 19.1366C70.0811 23.2696 76.6809 23.5493 81.7075 19.7613Z" fill="white"/>
<path d="M81.7075 19.7613C86.7342 15.9734 88.2842 9.55211 85.1697 5.41908C82.0551 1.28606 75.4553 1.00635 70.4287 4.79434C65.4021 8.58233 63.852 15.0036 66.9666 19.1366C70.0811 23.2696 76.6809 23.5493 81.7075 19.7613Z" stroke="#7C7B98" stroke-width="2" stroke-miterlimit="10"/>
<path d="M81.7075 19.7613C86.7342 15.9734 88.2842 9.55211 85.1697 5.41908C82.0551 1.28606 75.4553 1.00635 70.4287 4.79434C65.4021 8.58233 63.852 15.0036 66.9666 19.1366C70.0811 23.2696 76.6809 23.5493 81.7075 19.7613Z" stroke="#7C7B98" stroke-width="2" stroke-miterlimit="10"/>
<path d="M81.7075 19.7613C86.7342 15.9734 88.2842 9.55211 85.1697 5.41908C82.0551 1.28606 75.4553 1.00635 70.4287 4.79434C65.4021 8.58233 63.852 15.0036 66.9666 19.1366C70.0811 23.2696 76.6809 23.5493 81.7075 19.7613Z" stroke="#7C7B98" stroke-width="2" stroke-miterlimit="10"/>
<path d="M70.9841 11.089L72.7931 9.82271L75.0181 12.9884C75.398 13.4949 75.6875 14.0376 75.9045 14.6346C76.0312 15.0868 75.995 15.5752 75.8141 16.0094C75.5789 16.5521 75.199 17.0043 74.6925 17.33C74.0956 17.746 73.589 17.9812 73.1549 18.0535C72.7388 18.1259 72.3047 18.0535 71.9067 17.8726C71.4725 17.6556 71.0927 17.348 70.8032 16.9501L72.3589 15.5029C72.4856 15.7019 72.6484 15.8828 72.8293 16.0275C72.9559 16.1179 73.1006 16.1722 73.2634 16.1722C73.3901 16.1722 73.5167 16.1179 73.6071 16.0456C73.788 15.937 73.9147 15.72 73.8966 15.5029C73.8423 15.1954 73.7157 14.8878 73.5167 14.6527L70.9841 11.089V11.089ZM76.411 13.097L78.0572 11.7945C78.2381 12.0116 78.4733 12.1744 78.7265 12.2648C79.0883 12.3734 79.4682 12.301 79.7757 12.0658C79.9928 11.9211 80.1737 11.7221 80.2461 11.4689C80.3546 11.1433 80.1737 10.7815 79.8481 10.6729C79.7938 10.6548 79.7395 10.6368 79.6853 10.6368C79.4682 10.6187 79.0883 10.7091 78.5275 10.9443C77.605 11.3242 76.8814 11.4689 76.3387 11.4146C75.8141 11.3603 75.3257 11.089 75.0362 10.6368C74.8191 10.3292 74.7106 9.96743 74.6925 9.60564C74.6925 9.18957 74.8011 8.77351 75.0362 8.4298C75.3799 7.94138 75.796 7.52532 76.3025 7.1997C77.0623 6.6751 77.7316 6.42184 78.3105 6.42184C78.8893 6.42184 79.432 6.69319 79.9385 7.25397L78.3105 8.53834C77.9848 8.12228 77.3698 8.03183 76.9537 8.35745L76.8995 8.41171C76.7186 8.52025 76.5919 8.68306 76.5196 8.88205C76.4653 9.02676 76.5015 9.18957 76.5919 9.3162C76.6643 9.40665 76.7728 9.47901 76.8995 9.47901C77.0442 9.4971 77.2974 9.42474 77.6592 9.26193C78.5637 8.88205 79.2511 8.66497 79.7215 8.59261C80.1194 8.52025 80.5355 8.55643 80.9154 8.71924C81.2591 8.86396 81.5485 9.11721 81.7475 9.42474C82.0008 9.78653 82.1455 10.2207 82.1636 10.6729C82.1817 11.1433 82.055 11.5955 81.8018 11.9935C81.4762 12.4819 81.0601 12.898 80.5717 13.2236C79.5767 13.911 78.7627 14.2004 78.1115 14.0919C77.406 13.9834 76.8271 13.6216 76.411 13.097V13.097Z" fill="#7C7B98"/>
</g>
<defs>
<clipPath id="clip0_167_110">
<rect width="100" height="37.1382" fill="white"/>
</clipPath>
</defs>
</svg>
