<svg width="24" height="22" viewBox="0 0 24 22" fill="none" xmlns="http://www.w3.org/2000/svg">
<path d="M12.395 0.902442C13.1932 0.153842 14.5 0.719862 14.5 1.81425V20.1843C14.5 21.2785 13.1937 21.8446 12.3953 21.0964L7.45832 16.4703C7.134 16.1664 6.70619 15.9973 6.26174 15.9973H3.25C1.45507 15.9973 0 14.5422 0 12.7473V9.2553C0 7.4604 1.45508 6.00529 3.25 6.00529H6.26119C6.70587 6.00529 7.13388 5.836 7.45826 5.53182L12.395 0.902442Z" fill="#7C7B98"/>
<path d="M19.6436 2.18437C19.9546 1.91079 20.4285 1.94114 20.702 2.25215C22.7544 4.58537 24 7.6481 24 10.9999C24 14.3517 22.7544 17.4145 20.702 19.7477C20.4285 20.0587 19.9546 20.089 19.6436 19.8155C19.3325 19.5419 19.3022 19.068 19.5758 18.757C21.3966 16.687 22.5 13.9733 22.5 10.9999C22.5 8.0266 21.3966 5.31278 19.5758 3.24286C19.3022 2.93185 19.3325 2.45795 19.6436 2.18437Z" fill="#7C7B98"/>
<path d="M18.3528 5.3028C18.1042 4.9715 17.6341 4.90448 17.3028 5.1531C16.9715 5.40173 16.9044 5.87185 17.1531 6.20315C18.156 7.5397 18.75 9.1993 18.75 10.9999C18.75 12.8005 18.156 14.4602 17.1531 15.7967C16.9044 16.128 16.9715 16.5981 17.3028 16.8467C17.6341 17.0954 18.1042 17.0283 18.3528 16.697C19.544 15.1098 20.25 13.1362 20.25 10.9999C20.25 8.8636 19.544 6.89006 18.3528 5.3028Z" fill="#7C7B98"/>
</svg>
