<svg width="24" height="21" viewBox="0 0 24 21" fill="none" xmlns="http://www.w3.org/2000/svg">
<path d="M14.5 1.25248C14.5 0.158094 13.1932 -0.407926 12.395 0.340674L7.45826 4.97005C7.13388 5.27423 6.70587 5.44352 6.26119 5.44352H3.25C1.45508 5.44352 0 6.89863 0 8.69353V12.1855C0 13.9804 1.45507 15.4355 3.25 15.4355H6.26174C6.70619 15.4355 7.134 15.6046 7.45832 15.9085L12.3953 20.5346C13.1937 21.2828 14.5 20.7167 14.5 19.6225V1.25248Z" fill="#030229"/>
<path d="M17.7824 7.15982C17.4905 6.86592 17.0157 6.86413 16.7217 7.15593C16.4277 7.44773 16.426 7.92263 16.7178 8.21663L18.9359 10.451L16.7208 12.6568C16.4273 12.949 16.4263 13.4239 16.7186 13.7174C17.0108 14.0109 17.4857 14.0119 17.7792 13.7196L19.9965 11.5117L22.2217 13.7205C22.5157 14.0123 22.9906 14.0105 23.2824 13.7166C23.5742 13.4226 23.5724 12.9477 23.2784 12.6559L21.0572 10.451L23.2815 8.21742C23.5738 7.92392 23.5728 7.44913 23.2793 7.15683C22.9858 6.86453 22.5109 6.86553 22.2186 7.15903L19.9965 9.39033L17.7824 7.15982Z" fill="#030229"/>
</svg>
