<svg width="100" height="100" viewBox="0 0 100 100" fill="none" xmlns="http://www.w3.org/2000/svg">
<path d="M51.4107 13.9373C54.2614 11.2637 58.9285 13.2852 58.9285 17.1937V82.8011C58.9285 86.7089 54.2632 88.7307 51.4118 86.0586L33.7797 69.5368C32.6214 68.4514 31.0935 67.8475 29.5062 67.8475H18.75C12.3395 67.8475 7.14282 62.6507 7.14282 56.2403V43.7689C7.14282 37.3586 12.3395 32.1617 18.75 32.1617H29.5042C31.0924 32.1617 32.621 31.5571 33.7795 30.4708L51.4107 13.9373Z" fill="white"/>
<path d="M77.2986 18.5156C78.4093 17.5385 80.1018 17.6469 81.0786 18.7576C88.4086 27.0906 92.8571 38.0289 92.8571 49.9996C92.8571 61.9703 88.4086 72.9089 81.0786 81.2417C80.1018 82.3524 78.4093 82.4607 77.2986 81.4839C76.1875 80.5067 76.0793 78.8142 77.0564 77.7035C83.5593 70.3107 87.5 60.6189 87.5 49.9996C87.5 39.3807 83.5593 29.6884 77.0564 22.2959C76.0793 21.1851 76.1875 19.4926 77.2986 18.5156Z" fill="white"/>
<path d="M72.6885 29.6529C71.8007 28.4697 70.1217 28.2303 68.9385 29.1182C67.7553 30.0062 67.5157 31.6852 68.4039 32.8684C71.9857 37.6418 74.1071 43.569 74.1071 49.9997C74.1071 56.4304 71.9857 62.3579 68.4039 67.1311C67.5157 68.3143 67.7553 69.9932 68.9385 70.8811C70.1217 71.7693 71.8007 71.5297 72.6885 70.3465C76.9428 64.6779 79.4642 57.6293 79.4642 49.9997C79.4642 42.37 76.9428 35.3217 72.6885 29.6529Z" fill="white"/>
</svg>
