<svg width="20" height="20" viewBox="0 0 20 20" fill="none" xmlns="http://www.w3.org/2000/svg">
<path fill-rule="evenodd" clip-rule="evenodd" d="M5.33 0H14.669C18.07 0 19.99 1.929 20 5.33V14.67C20 18.07 18.07 20 14.669 20H5.33C1.929 20 0 18.07 0 14.67V5.33C0 1.929 1.929 0 5.33 0ZM10.049 15.86C10.48 15.86 10.839 15.54 10.879 15.11V4.92C10.919 4.61 10.77 4.299 10.5 4.13C10.219 3.96 9.879 3.96 9.61 4.13C9.339 4.299 9.19 4.61 9.219 4.92V15.11C9.27 15.54 9.629 15.86 10.049 15.86ZM14.65 15.86C15.07 15.86 15.429 15.54 15.48 15.11V11.83C15.509 11.509 15.36 11.21 15.089 11.04C14.82 10.87 14.48 10.87 14.2 11.04C13.929 11.21 13.78 11.509 13.82 11.83V15.11C13.86 15.54 14.219 15.86 14.65 15.86ZM6.219 15.11C6.179 15.54 5.82 15.86 5.389 15.86C4.959 15.86 4.599 15.54 4.56 15.11V8.2C4.53 7.889 4.679 7.58 4.95 7.41C5.219 7.24 5.56 7.24 5.83 7.41C6.099 7.58 6.25 7.889 6.219 8.2V15.11Z" fill="#7C7B98"/>
</svg>
