<svg width="18" height="18" viewBox="0 0 18 18" fill="none" xmlns="http://www.w3.org/2000/svg">
<path d="M9 0C13.9706 0 18 4.02944 18 9C18 13.9706 13.9706 18 9 18C4.02944 18 0 13.9706 0 9C0 4.02944 4.02944 0 9 0ZM12.8852 6.12725C12.6802 5.92223 12.3563 5.90856 12.1354 6.08625L12.0898 6.12725L7.5375 10.6795L5.91025 9.05225C5.69058 8.83258 5.33442 8.83258 5.11475 9.05225C4.90973 9.25728 4.89606 9.5812 5.07375 9.80207L5.11475 9.84775L7.13975 11.8727C7.34478 12.0778 7.6687 12.0914 7.88957 11.9138L7.93525 11.8727L12.8852 6.92275C13.1049 6.70308 13.1049 6.34692 12.8852 6.12725Z" fill="#7C7B98"/>
</svg>
