<svg width="22" height="22" viewBox="0 0 22 22" fill="none" xmlns="http://www.w3.org/2000/svg">
<path d="M21 17.6667C21 19.5076 19.5076 21 17.6667 21H16.1389C15.6787 21 15.3056 20.6269 15.3056 20.1667V13.5C15.3056 13.0398 15.6787 12.6667 16.1389 12.6667H19.3333V11C19.3333 6.39763 15.6024 2.66667 11 2.66667C6.39763 2.66667 2.66667 6.39763 2.66667 11V12.6667C2.66667 12.6667 5.40087 12.6667 5.86111 12.6667C6.32135 12.6667 6.69444 13.0398 6.69444 13.5V20.1667C6.69444 20.6269 6.32135 21 5.86111 21H4.33333C2.49238 21 1 19.5076 1 17.6667V11C1 5.47715 5.47715 1 11 1C16.5228 1 21 5.47715 21 11V17.6667Z" fill="#7C7B98" stroke="#7C7B98"/>
</svg>
