<svg width="23" height="22" viewBox="0 0 23 22" fill="none" xmlns="http://www.w3.org/2000/svg">
<path d="M8.24133 1.91082C7.41696 0.89836 6.1596 0.25 4.75 0.25C2.26472 0.25 0.25 2.26472 0.25 4.75C0.25 6.15958 0.898461 7.41706 1.91082 8.24135C1.56342 9.26395 1.375 10.3599 1.375 11.5C1.375 13.9922 2.27542 16.2741 3.76867 18.0381L1.62213 20.1847C1.29263 20.5142 1.29263 21.0483 1.62213 21.3778C1.95163 21.7074 2.48587 21.7074 2.81537 21.3778L4.96192 19.2313C6.72593 20.7246 9.00781 21.625 11.5 21.625C13.9922 21.625 16.2741 20.7246 18.0381 19.2313L20.1847 21.3778C20.5142 21.7074 21.0483 21.7074 21.3778 21.3778C21.7074 21.0483 21.7074 20.5142 21.3778 20.1847L19.2313 18.0381C20.7246 16.2741 21.625 13.9922 21.625 11.5C21.625 10.3599 21.4366 9.26395 21.0892 8.24139C22.1017 7.41706 22.7501 6.15963 22.7501 4.75C22.7501 2.26472 20.7354 0.25 18.2501 0.25C16.8405 0.25 15.5831 0.898383 14.7588 1.91084C13.7362 1.56343 12.6401 1.375 11.5 1.375C10.3599 1.375 9.26395 1.56342 8.24133 1.91082ZM4.75 1.9375C5.45983 1.9375 6.10882 2.20031 6.60432 2.63515C4.93714 3.55783 3.55783 4.93713 2.63515 6.60432C2.20026 6.10879 1.9375 5.45986 1.9375 4.75C1.9375 3.1967 3.1967 1.9375 4.75 1.9375ZM16.3958 2.63518C16.8912 2.20031 17.5402 1.9375 18.2501 1.9375C19.8034 1.9375 21.0626 3.1967 21.0626 4.75C21.0626 5.45988 20.7998 6.10887 20.3649 6.60438C19.4423 4.9372 18.0629 3.55787 16.3958 2.63518ZM10.6563 5.875C11.1222 5.875 11.5 6.25276 11.5 6.71875V11.5H14.5938C15.0597 11.5 15.4375 11.8778 15.4375 12.3438C15.4375 12.8097 15.0597 13.1875 14.5938 13.1875H10.6563C10.1903 13.1875 9.8125 12.8097 9.8125 12.3438V6.71875C9.8125 6.25276 10.1903 5.875 10.6563 5.875Z" fill="#FFD66B"/>
</svg>
