<svg width="18" height="18" viewBox="0 0 18 18" fill="none" xmlns="http://www.w3.org/2000/svg">
<path d="M0.439338 0.439341L0.647082 0.265773L0.875795 0.1356C1.3502 -0.0813583 1.91446 -0.0379677 2.35292 0.265773L2.56066 0.439341L9 6.879L15.4393 0.439341L15.6471 0.265773C16.1586 -0.0885912 16.8414 -0.0885912 17.3529 0.265773L17.5607 0.439341L17.7342 0.647084C18.0886 1.15861 18.0886 1.84139 17.7342 2.35292L17.5607 2.56066L11.121 9L17.5607 15.4393L17.7342 15.6471C18.0886 16.1586 18.0886 16.8414 17.7342 17.3529L17.5607 17.5607L17.3529 17.7342C16.8414 18.0886 16.1586 18.0886 15.6471 17.7342L15.4393 17.5607L9 11.121L2.56066 17.5607L2.35292 17.7342C1.84139 18.0886 1.15861 18.0886 0.647082 17.7342L0.439338 17.5607L0.265774 17.3529C-0.0885912 16.8414 -0.0885912 16.1586 0.265774 15.6471L0.439338 15.4393L6.879 9L0.439338 2.56066L0.265774 2.35292C-0.0885912 1.84139 -0.0885912 1.15861 0.265774 0.647084L0.439338 0.439341Z" fill="black"/>
</svg>
