<svg width="17" height="20" viewBox="0 0 17 20" fill="none" xmlns="http://www.w3.org/2000/svg">
<path d="M14 0C15.3807 0 16.5 1.11929 16.5 2.5V16.75C16.5 17.1642 16.1642 17.5 15.75 17.5H1.5C1.5 18.0523 1.94772 18.5 2.5 18.5H15.75C16.1642 18.5 16.5 18.8358 16.5 19.25C16.5 19.6642 16.1642 20 15.75 20H2.5C1.11929 20 0 18.8807 0 17.5V2.5C0 1.11929 1.11929 0 2.5 0H14ZM8.8581 4.37799C8.62598 3.9076 7.98444 3.87624 7.69773 4.28391L7.642 4.37799L6.5416 6.60759L4.08108 6.96512C3.55966 7.04089 3.33188 7.64636 3.63706 8.04496L3.70527 8.1217L5.48571 9.8572L5.06541 12.3078C4.97599 12.8291 5.48576 13.234 5.96079 13.0618L6.0493 13.0226L8.25 11.8656L10.4508 13.0226C10.9189 13.2688 11.4616 12.909 11.4446 12.4041L11.4347 12.3078L11.0143 9.8572L12.7948 8.1217C13.172 7.75396 13.0005 7.13024 12.5193 6.98712L12.419 6.96512L9.9585 6.60759L8.8581 4.37799ZM8.25 6.21029L8.9001 7.52747C8.98479 7.69902 9.13714 7.82544 9.31805 7.87827L9.4107 7.89842L10.8643 8.1096L9.8124 9.1349C9.67923 9.26473 9.60641 9.44227 9.60766 9.62511L9.6174 9.7351L9.8657 11.1829L8.5656 10.4993C8.40093 10.4128 8.2096 10.3984 8.0361 10.456L7.9345 10.4993L6.6343 11.1829L6.8826 9.7351C6.9141 9.55185 6.86866 9.36541 6.76016 9.21819L6.6876 9.1349L5.6358 8.1096L7.0894 7.89842C7.27874 7.87091 7.44604 7.76507 7.5522 7.60935L7.6 7.52747L8.25 6.21029Z" fill="#7C7B98"/>
</svg>
