<svg width="18" height="18" viewBox="0 0 18 18" fill="none" xmlns="http://www.w3.org/2000/svg">
<path d="M0.84375 10.125C1.30974 10.125 1.6875 10.5028 1.6875 10.9688V14.3438C1.6875 15.4311 2.56894 16.3125 3.65625 16.3125H7.03125C7.49724 16.3125 7.875 16.6903 7.875 17.1562C7.875 17.6222 7.49724 18 7.03125 18H3.65625C1.63695 18 0 16.363 0 14.3438V10.9688C0 10.5028 0.377764 10.125 0.84375 10.125ZM17.1562 10.125C17.5834 10.125 17.9364 10.4424 17.9923 10.8543L18 10.9688V14.3438C18 16.2934 16.474 17.8867 14.5512 17.9942L14.3438 18H10.9688C10.5028 18 10.125 17.6222 10.125 17.1562C10.125 16.7291 10.4424 16.3761 10.8543 16.3202L10.9688 16.3125H14.3438C15.3767 16.3125 16.2238 15.517 16.306 14.5052L16.3125 14.3438V10.9688C16.3125 10.5028 16.6903 10.125 17.1562 10.125ZM7.03125 0C7.49724 0 7.875 0.377764 7.875 0.84375C7.875 1.2709 7.55757 1.62393 7.14574 1.6798L7.03125 1.6875H3.65625C2.6233 1.6875 1.77616 2.483 1.69403 3.49478L1.6875 3.65625V7.03125C1.6875 7.49724 1.30974 7.875 0.84375 7.875C0.416596 7.875 0.0635733 7.55757 0.0077025 7.14574L0 7.03125V3.65625C0 1.70658 1.52601 0.113348 3.44877 0.00578794L3.65625 0H7.03125ZM14.3438 0C16.2934 0 17.8867 1.52601 17.9942 3.44877L18 3.65625V7.03125C18 7.49724 17.6222 7.875 17.1562 7.875C16.7291 7.875 16.3761 7.55757 16.3202 7.14574L16.3125 7.03125V3.65625C16.3125 2.6233 15.517 1.77616 14.5052 1.69403L14.3438 1.6875H10.9688C10.5028 1.6875 10.125 1.30974 10.125 0.84375C10.125 0.416596 10.4424 0.0635733 10.8543 0.0077025L10.9688 0H14.3438Z" fill="#030229"/>
</svg>
