<svg width="20" height="20" viewBox="0 0 20 20" fill="none" xmlns="http://www.w3.org/2000/svg">
<path d="M8.03125 19C7.56526 19 7.1875 18.6222 7.1875 18.1562V14.7812C7.1875 13.6939 6.30606 12.8125 5.21875 12.8125H1.84375C1.37776 12.8125 1 12.4347 1 11.9688C1 11.5028 1.37776 11.125 1.84375 11.125H5.21875C7.23805 11.125 8.875 12.762 8.875 14.7812V18.1562C8.875 18.6222 8.49724 19 8.03125 19ZM11.9688 19C11.5416 19 11.1886 18.6826 11.1327 18.2707L11.125 18.1562V14.7812C11.125 12.8316 12.651 11.2383 14.5738 11.1308L14.7812 11.125H18.1562C18.6222 11.125 19 11.5028 19 11.9688C19 12.3959 18.6826 12.7489 18.2707 12.8048L18.1562 12.8125H14.7812C13.7483 12.8125 12.9012 13.608 12.819 14.6198L12.8125 14.7812V18.1562C12.8125 18.6222 12.4347 19 11.9688 19ZM1.84375 8.875C1.37776 8.875 1 8.49724 1 8.03125C1 7.6041 1.31743 7.25107 1.72926 7.1952L1.84375 7.1875H5.21875C6.2517 7.1875 7.09884 6.392 7.18097 5.38022L7.1875 5.21875V1.84375C7.1875 1.37776 7.56526 1 8.03125 1C8.4584 1 8.81143 1.31743 8.8673 1.72926L8.875 1.84375V5.21875C8.875 7.16842 7.34899 8.76165 5.42623 8.86921L5.21875 8.875H1.84375ZM14.7812 8.875C12.8316 8.875 11.2383 7.34899 11.1308 5.42623L11.125 5.21875V1.84375C11.125 1.37776 11.5028 1 11.9688 1C12.3959 1 12.7489 1.31743 12.8048 1.72926L12.8125 1.84375V5.21875C12.8125 6.2517 13.608 7.09884 14.6198 7.18097L14.7812 7.1875H18.1562C18.6222 7.1875 19 7.56526 19 8.03125C19 8.4584 18.6826 8.81143 18.2707 8.8673L18.1562 8.875H14.7812Z" fill="#030229"/>
<path fill-rule="evenodd" clip-rule="evenodd" d="M8.03125 1.5C7.84141 1.5 7.6875 1.65391 7.6875 1.84375V5.22885L7.68016 5.41055L7.67933 5.42067C7.5763 6.68994 6.51428 7.6875 5.21875 7.6875H1.86055L1.78347 7.69269C1.62253 7.7209 1.5 7.86216 1.5 8.03125C1.5 8.22109 1.65391 8.375 1.84375 8.375H5.21178L5.40503 8.36961C7.06124 8.27344 8.375 6.89935 8.375 5.21875V1.86055L8.36981 1.78347C8.3416 1.62253 8.20034 1.5 8.03125 1.5ZM6.6875 1.84375C6.6875 1.10162 7.28912 0.5 8.03125 0.5C8.71195 0.5 9.27371 1.00567 9.36276 1.66204L9.36503 1.67881L9.375 1.82695V5.21875C9.375 7.4352 7.6403 9.24614 5.45415 9.36843L5.44018 9.36921L5.21875 9.37519L1.84375 9.375C1.10162 9.375 0.5 8.77338 0.5 8.03125C0.5 7.35055 1.00567 6.78879 1.66204 6.69974L1.67881 6.69747L1.82695 6.6875H5.21875C5.98592 6.6875 6.61613 6.09899 6.68182 5.34915L6.6875 5.20864V1.84375ZM11.9688 1.5C11.7789 1.5 11.625 1.65391 11.625 1.84375V5.21178L11.6304 5.40501C11.7265 7.06123 13.1007 8.375 14.7812 8.375H18.1395L18.2165 8.36981C18.3775 8.3416 18.5 8.20033 18.5 8.03125C18.5 7.84141 18.3461 7.6875 18.1562 7.6875H14.7711L14.5894 7.68016L14.5793 7.67933C13.3101 7.5763 12.3125 6.51428 12.3125 5.21875V1.86055L12.3073 1.78347C12.2791 1.62253 12.1378 1.5 11.9688 1.5ZM10.625 1.84375C10.625 1.10162 11.2266 0.5 11.9688 0.5C12.6494 0.5 13.2112 1.00567 13.3003 1.66204L13.3025 1.67881L13.3125 1.82695V5.21875C13.3125 5.98592 13.901 6.61614 14.6509 6.68182L14.7913 6.6875H18.1562C18.8984 6.6875 19.5 7.28912 19.5 8.03125C19.5 8.71195 18.9943 9.27371 18.338 9.36276L18.3212 9.36503L18.173 9.375H14.7812C12.5648 9.375 10.7539 7.64031 10.6316 5.45415L10.6308 5.44017L10.6248 5.21875L10.625 1.84375ZM14.7812 10.625H18.1562C18.8984 10.625 19.5 11.2266 19.5 11.9688C19.5 12.6494 18.9943 13.2112 18.338 13.3003L18.3212 13.3025L18.1731 13.3125H14.7812C14.0141 13.3125 13.3839 13.901 13.3182 14.6509L13.3125 14.7913V18.1562C13.3125 18.8984 12.7109 19.5 11.9688 19.5C11.2881 19.5 10.7263 18.9943 10.6372 18.338L10.635 18.3212L10.625 18.1731V14.7812C10.625 12.5648 12.3597 10.7539 14.5458 10.6316L14.5598 10.6308L14.7812 10.625ZM1.84375 11.625C1.65391 11.625 1.5 11.7789 1.5 11.9688C1.5 12.1586 1.65391 12.3125 1.84375 12.3125H5.21875C6.5822 12.3125 7.6875 13.4178 7.6875 14.7812V18.1562C7.6875 18.3461 7.84141 18.5 8.03125 18.5C8.22109 18.5 8.375 18.3461 8.375 18.1562V14.7812C8.375 13.0381 6.9619 11.625 5.21875 11.625H1.84375ZM0.5 11.9688C0.5 11.2266 1.10162 10.625 1.84375 10.625H5.21875C7.51419 10.625 9.375 12.4858 9.375 14.7812V18.1562C9.375 18.8984 8.77338 19.5 8.03125 19.5C7.28912 19.5 6.6875 18.8984 6.6875 18.1562V14.7812C6.6875 13.9701 6.02992 13.3125 5.21875 13.3125H1.84375C1.10162 13.3125 0.5 12.7109 0.5 11.9688ZM14.7882 11.625L14.595 11.6304C12.9388 11.7265 11.625 13.1007 11.625 14.7812V18.1394L11.6302 18.2165C11.6584 18.3775 11.7997 18.5 11.9688 18.5C12.1586 18.5 12.3125 18.3461 12.3125 18.1562V14.7712L12.3198 14.5894L12.3207 14.5793C12.4237 13.3101 13.4857 12.3125 14.7812 12.3125H18.1394L18.2165 12.3073C18.3775 12.2791 18.5 12.1378 18.5 11.9688C18.5 11.7789 18.3461 11.625 18.1562 11.625H14.7882Z" fill="#030229"/>
</svg>
