<svg width="20" height="20" viewBox="0 0 20 20" fill="none" xmlns="http://www.w3.org/2000/svg">
<path d="M1.84375 11.125C2.30974 11.125 2.6875 11.5028 2.6875 11.9688V15.3438C2.6875 16.4311 3.56894 17.3125 4.65625 17.3125H8.03125C8.49724 17.3125 8.875 17.6903 8.875 18.1562C8.875 18.6222 8.49724 19 8.03125 19H4.65625C2.63695 19 1 17.363 1 15.3438V11.9688C1 11.5028 1.37776 11.125 1.84375 11.125ZM18.1562 11.125C18.5834 11.125 18.9364 11.4424 18.9923 11.8543L19 11.9688V15.3438C19 17.2934 17.474 18.8867 15.5512 18.9942L15.3438 19H11.9688C11.5028 19 11.125 18.6222 11.125 18.1562C11.125 17.7291 11.4424 17.3761 11.8543 17.3202L11.9688 17.3125H15.3438C16.3767 17.3125 17.2238 16.517 17.306 15.5052L17.3125 15.3438V11.9688C17.3125 11.5028 17.6903 11.125 18.1562 11.125ZM8.03125 1C8.49724 1 8.875 1.37776 8.875 1.84375C8.875 2.2709 8.55757 2.62393 8.14574 2.6798L8.03125 2.6875H4.65625C3.6233 2.6875 2.77616 3.483 2.69403 4.49478L2.6875 4.65625V8.03125C2.6875 8.49724 2.30974 8.875 1.84375 8.875C1.4166 8.875 1.06357 8.55757 1.0077 8.14574L1 8.03125V4.65625C1 2.70658 2.52601 1.11335 4.44877 1.00579L4.65625 1H8.03125ZM15.3438 1C17.2934 1 18.8867 2.52601 18.9942 4.44877L19 4.65625V8.03125C19 8.49724 18.6222 8.875 18.1562 8.875C17.7291 8.875 17.3761 8.55757 17.3202 8.14574L17.3125 8.03125V4.65625C17.3125 3.6233 16.517 2.77616 15.5052 2.69403L15.3438 2.6875H11.9688C11.5028 2.6875 11.125 2.30974 11.125 1.84375C11.125 1.4166 11.4424 1.06357 11.8543 1.0077L11.9688 1H15.3438Z" fill="#030229"/>
<path fill-rule="evenodd" clip-rule="evenodd" d="M4.65625 0.5H8.03125C8.77338 0.5 9.375 1.10162 9.375 1.84375C9.375 2.52445 8.86933 3.08621 8.21296 3.17526L8.19619 3.17753L8.04805 3.1875H4.65625C3.88908 3.1875 3.25887 3.77602 3.19318 4.52586L3.1875 4.66635V8.03125C3.1875 8.77338 2.58588 9.375 1.84375 9.375C1.16305 9.375 0.601287 8.86933 0.512241 8.21296L0.509966 8.19619L0.5 8.04805V4.65625C0.5 2.4398 2.2347 0.628862 4.42085 0.506568L4.43482 0.505787L4.65625 0.5ZM4.66322 1.5L4.46997 1.50539C2.81376 1.60156 1.5 2.97565 1.5 4.65625V8.01445L1.50519 8.09153C1.5334 8.25247 1.67466 8.375 1.84375 8.375C2.03359 8.375 2.1875 8.22109 2.1875 8.03125V4.64615L2.19484 4.46445L2.19567 4.45433C2.2987 3.18506 3.36072 2.1875 4.65625 2.1875H8.01445L8.09153 2.18231C8.25247 2.1541 8.375 2.01284 8.375 1.84375C8.375 1.65391 8.22109 1.5 8.03125 1.5H4.66322ZM11.952 0.5H15.3438C17.5602 0.5 19.3711 2.23469 19.4934 4.42085L19.4942 4.43483L19.5002 4.65625L19.5 8.03125C19.5 8.77338 18.8984 9.375 18.1562 9.375C17.4756 9.375 16.9138 8.86933 16.8247 8.21296L16.8225 8.19619L16.8125 8.04805V4.65625C16.8125 3.88908 16.224 3.25887 15.4741 3.19318L15.3336 3.1875H11.9688C11.2266 3.1875 10.625 2.58588 10.625 1.84375C10.625 1.16305 11.1307 0.601286 11.787 0.512241L11.8038 0.509966L11.952 0.5ZM11.9855 1.5L11.9085 1.50519C11.7475 1.5334 11.625 1.67467 11.625 1.84375C11.625 2.03359 11.7789 2.1875 11.9688 2.1875H15.3539L15.5356 2.19484L15.5457 2.19567C16.8149 2.2987 17.8125 3.36072 17.8125 4.65625V8.01444L17.8177 8.09153C17.8459 8.25247 17.9872 8.375 18.1562 8.375C18.3461 8.375 18.5 8.22109 18.5 8.03125V4.66322L18.4946 4.46998C18.3985 2.81377 17.0243 1.5 15.3438 1.5H11.9855ZM1.84375 11.625C1.65391 11.625 1.5 11.7789 1.5 11.9688V15.3438C1.5 17.0869 2.9131 18.5 4.65625 18.5H8.03125C8.22109 18.5 8.375 18.3461 8.375 18.1562C8.375 17.9664 8.22109 17.8125 8.03125 17.8125H4.65625C3.2928 17.8125 2.1875 16.7072 2.1875 15.3438V11.9688C2.1875 11.7789 2.03359 11.625 1.84375 11.625ZM0.5 11.9688C0.5 11.2266 1.10162 10.625 1.84375 10.625C2.58588 10.625 3.1875 11.2266 3.1875 11.9688V15.3438C3.1875 16.1549 3.84508 16.8125 4.65625 16.8125H8.03125C8.77338 16.8125 9.375 17.4141 9.375 18.1562C9.375 18.8984 8.77338 19.5 8.03125 19.5H4.65625C2.36081 19.5 0.5 17.6392 0.5 15.3438V11.9688ZM18.1562 11.625C17.9664 11.625 17.8125 11.7789 17.8125 11.9688V15.3538L17.8052 15.5356L17.8043 15.5457C17.7013 16.8149 16.6393 17.8125 15.3438 17.8125H11.9856L11.9085 17.8177C11.7475 17.8459 11.625 17.9872 11.625 18.1562C11.625 18.3461 11.7789 18.5 11.9688 18.5H15.3368L15.53 18.4946C17.1862 18.3985 18.5 17.0243 18.5 15.3438V11.9856L18.4948 11.9085C18.4666 11.7475 18.3253 11.625 18.1562 11.625ZM16.8125 11.9688C16.8125 11.2266 17.4141 10.625 18.1562 10.625C18.8369 10.625 19.3987 11.1307 19.4878 11.787L19.49 11.8038L19.5 11.9519V15.3438C19.5 17.5602 17.7653 19.3711 15.5792 19.4934L15.5652 19.4942L15.3438 19.5002L11.9688 19.5C11.2266 19.5 10.625 18.8984 10.625 18.1562C10.625 17.4756 11.1307 16.9138 11.787 16.8247L11.8038 16.8225L11.9519 16.8125H15.3438C16.1109 16.8125 16.7411 16.224 16.8068 15.4742L16.8125 15.3337V11.9688Z" fill="#030229"/>
</svg>
