<svg width="20" height="14" viewBox="0 0 20 14" fill="none" xmlns="http://www.w3.org/2000/svg">
<path d="M12.9958 0C16.8618 0 19.9958 3.13401 19.9958 7C19.9958 10.7855 16.991 13.8691 13.2364 13.9959L12.9958 14H7C3.13401 14 0 10.866 0 7C0 3.21455 3.00478 0.130901 6.75935 0.00405884L7 0H12.9958ZM12.7479 7.5C12.0575 7.5 11.4979 8.05964 11.4979 8.75C11.4979 9.44036 12.0575 10 12.7479 10C13.4382 10 13.9979 9.44036 13.9979 8.75C13.9979 8.05964 13.4382 7.5 12.7479 7.5ZM5.99788 4C5.61819 4 5.30439 4.28215 5.25473 4.64823L5.24788 4.75V6.248L3.74788 6.24875C3.33367 6.24875 2.99788 6.58453 2.99788 6.99875C2.99788 7.37844 3.28004 7.69224 3.64611 7.7419L3.74788 7.74875L5.24788 7.748V9.25C5.24788 9.66421 5.58367 10 5.99788 10C6.37758 10 6.69137 9.71785 6.74104 9.35177L6.74788 9.25V7.748L8.24788 7.74875C8.6621 7.74875 8.99788 7.41296 8.99788 6.99875C8.99788 6.61905 8.71573 6.30525 8.34965 6.25559L8.24788 6.24875L6.74788 6.248V4.75C6.74788 4.33579 6.4121 4 5.99788 4ZM14.7479 4C14.0575 4 13.4979 4.55964 13.4979 5.25C13.4979 5.94036 14.0575 6.5 14.7479 6.5C15.4382 6.5 15.9979 5.94036 15.9979 5.25C15.9979 4.55964 15.4382 4 14.7479 4Z" fill="#7C7B98"/>
</svg>
