<svg width="21" height="20" viewBox="0 0 21 20" fill="none" xmlns="http://www.w3.org/2000/svg">
<path fill-rule="evenodd" clip-rule="evenodd" d="M7.89535 9.23C7.45785 9.23 7.11192 9.57 7.11192 10C7.11192 10.42 7.45785 10.77 7.89535 10.77H14V15.55C14 18 11.9753 20 9.47238 20H4.51744C2.02471 20 0 18.01 0 15.56V4.45C0 1.99 2.03488 0 4.52762 0H9.49273C11.9753 0 14 1.99 14 4.44V9.23H7.89535ZM17.6304 6.54017L20.5504 9.45017C20.7004 9.60017 20.7804 9.79017 20.7804 10.0002C20.7804 10.2002 20.7004 10.4002 20.5504 10.5402L17.6304 13.4502C17.4804 13.6002 17.2804 13.6802 17.0904 13.6802C16.8904 13.6802 16.6904 13.6002 16.5404 13.4502C16.2404 13.1502 16.2404 12.6602 16.5404 12.3602L18.1404 10.7702H14.0004V9.23017H18.1404L16.5404 7.64017C16.2404 7.34017 16.2404 6.85017 16.5404 6.55017C16.8404 6.24017 17.3304 6.24017 17.6304 6.54017Z" fill="#7C7B98"/>
</svg>
