<svg width="20" height="20" viewBox="0 0 20 20" fill="none" xmlns="http://www.w3.org/2000/svg">
<path d="M14.5682 16.3636L16.0077 16.9956C16.3059 17.1264 16.6541 17.0547 16.8764 16.8165C17.912 15.7076 18.6832 14.3779 19.1322 12.9275C19.229 12.6146 19.1175 12.2746 18.8542 12.0804L17.5823 11.1414C17.219 10.874 17 10.4502 17 9.99944C17 9.54878 17.219 9.12494 17.5815 8.85803L18.8523 7.91953C19.1155 7.7252 19.2269 7.3852 19.1301 7.07245C18.681 5.62171 17.9093 4.29195 16.8732 3.18321C16.6506 2.94499 16.3022 2.87343 16.004 3.00468L14.5702 3.63573C14.3908 3.71526 14.1987 3.75578 14.0046 3.75547C13.2822 3.75471 12.6763 3.21012 12.5975 2.49109L12.4232 0.925091C12.3869 0.598475 12.1475 0.331066 11.8273 0.259525C11.094 0.0956583 10.3456 0.008675 9.59424 0C8.82424 0.008875 8.07499 0.0958165 7.34074 0.259433C7.02041 0.330816 6.78083 0.598308 6.74441 0.925091L6.57033 2.4899C6.52033 2.93767 6.26108 3.33548 5.8718 3.56174C5.4808 3.79062 5.0066 3.81801 4.59413 3.63665L3.16063 3.00571C2.86243 2.87446 2.51403 2.94601 2.29142 3.18423C1.25531 4.29297 0.483649 5.62273 0.034516 7.07345C-0.0623923 7.38645 0.0492826 7.72661 0.312741 7.92086L1.58468 8.85878C1.94767 9.12595 2.16178 9.54978 2.16178 10.0005C2.16178 10.4512 1.94767 10.875 1.58516 11.1419L0.312416 12.0814C0.0493494 12.2755 -0.0622256 12.6153 0.0343493 12.928C0.482699 14.38 1.25395 15.7113 2.29005 16.8215C2.51244 17.0598 2.86067 17.1316 3.15892 17.0007L4.59882 16.3686C5.0093 16.189 5.48152 16.2154 5.87043 16.44C6.25933 16.6646 6.51875 17.0609 6.5695 17.5077L6.74233 19.0712C6.778 19.3941 7.01233 19.6597 7.32774 19.7349C8.81041 20.0884 10.3552 20.0884 11.8379 19.7349C12.1533 19.6597 12.3876 19.3941 12.4233 19.0712L12.5964 17.5054C12.6458 17.0577 12.8941 16.6603 13.2833 16.4349C13.6726 16.2095 14.1563 16.183 14.5682 16.3636ZM9.58333 13.3333C7.74241 13.3333 6.25 11.8409 6.25 9.99994C6.25 8.15903 7.74241 6.66661 9.58333 6.66661C11.4242 6.66661 12.9167 8.15903 12.9167 9.99994C12.9167 11.8409 11.4242 13.3333 9.58333 13.3333Z" fill="#7C7B98"/>
</svg>
