<svg width="24" height="21" viewBox="0 0 24 21" fill="none" xmlns="http://www.w3.org/2000/svg">
<path d="M12.395 0.340674C13.1932 -0.407926 14.5 0.158094 14.5 1.25248V19.6225C14.5 20.7167 13.1937 21.2828 12.3953 20.5346L7.45832 15.9085C7.134 15.6046 6.70619 15.4355 6.26174 15.4355H3.25C1.45507 15.4355 0 13.9804 0 12.1855V8.69353C0 6.89863 1.45508 5.44352 3.25 5.44352H6.26119C6.70587 5.44352 7.13388 5.27423 7.45826 4.97005L12.395 0.340674Z" fill="#030229"/>
<path d="M19.6434 1.6226C19.9544 1.34902 20.4283 1.37937 20.7018 1.69038C22.7542 4.0236 23.9998 7.08633 23.9998 10.4381C23.9998 13.7899 22.7542 16.8527 20.7018 19.1859C20.4283 19.4969 19.9544 19.5272 19.6434 19.2537C19.3323 18.9801 19.302 18.5062 19.5756 18.1952C21.3964 16.1252 22.4998 13.4115 22.4998 10.4381C22.4998 7.46483 21.3964 4.75101 19.5756 2.68109C19.302 2.37008 19.3323 1.89618 19.6434 1.6226Z" fill="#030229"/>
<path d="M18.3528 4.74103C18.1042 4.40973 17.6341 4.34271 17.3028 4.59133C16.9715 4.83996 16.9044 5.31008 17.1531 5.64138C18.156 6.97793 18.75 8.63753 18.75 10.4381C18.75 12.2387 18.156 13.8984 17.1531 15.2349C16.9044 15.5662 16.9715 16.0363 17.3028 16.2849C17.6341 16.5336 18.1042 16.4665 18.3528 16.1352C19.544 14.548 20.25 12.5744 20.25 10.4381C20.25 8.30183 19.544 6.32829 18.3528 4.74103Z" fill="#030229"/>
</svg>
