<svg width="28" height="28" viewBox="0 0 28 28" fill="none" xmlns="http://www.w3.org/2000/svg">
<path d="M14.395 3.90244C15.1932 3.15384 16.5 3.71986 16.5 4.81425V23.1843C16.5 24.2785 15.1937 24.8446 14.3953 24.0964L9.45832 19.4703C9.134 19.1664 8.70619 18.9973 8.26174 18.9973H5.25C3.45507 18.9973 2 17.5422 2 15.7473V12.2553C2 10.4604 3.45508 9.00529 5.25 9.00529H8.26119C8.70587 9.00529 9.13388 8.836 9.45826 8.53182L14.395 3.90244Z" fill="#7C7B98"/>
<path d="M21.6436 5.18431C21.9546 4.91073 22.4285 4.94108 22.702 5.25209C24.7544 7.58531 26 10.648 26 13.9998C26 17.3516 24.7544 20.4144 22.702 22.7476C22.4285 23.0586 21.9546 23.0889 21.6436 22.8154C21.3325 22.5418 21.3022 22.0679 21.5758 21.7569C23.3966 19.6869 24.5 16.9732 24.5 13.9998C24.5 11.0265 23.3966 8.31272 21.5758 6.2428C21.3022 5.93179 21.3325 5.45789 21.6436 5.18431Z" fill="#7C7B98"/>
<path d="M20.3528 8.3028C20.1042 7.9715 19.6341 7.90448 19.3028 8.1531C18.9715 8.40173 18.9044 8.87185 19.1531 9.20315C20.156 10.5397 20.75 12.1993 20.75 13.9999C20.75 15.8005 20.156 17.4602 19.1531 18.7967C18.9044 19.128 18.9715 19.5981 19.3028 19.8467C19.6341 20.0954 20.1042 20.0283 20.3528 19.697C21.544 18.1098 22.25 16.1362 22.25 13.9999C22.25 11.8636 21.544 9.89006 20.3528 8.3028Z" fill="#7C7B98"/>
</svg>
