<svg width="20" height="20" viewBox="0 0 20 20" fill="none" xmlns="http://www.w3.org/2000/svg">
<path d="M10 0C15.5228 0 20 4.47715 20 10C20 15.5228 15.5228 20 10 20C8.10071 20 6.27705 19.4685 4.70069 18.4818C4.05866 18.0799 3.46403 17.6062 2.92852 17.0707C2.39219 16.5343 1.91793 15.9386 1.51574 15.2954C0.53056 13.7199 0 11.8977 0 10C0 9.69553 0.0136397 9.39256 0.0407627 9.09173C0.0958666 8.48056 0.635989 8.02978 1.24716 8.08489C1.85833 8.13999 2.30911 8.68011 2.25401 9.29128C2.23286 9.52579 2.22222 9.76217 2.22222 10C2.22222 11.478 2.63407 12.8924 3.39991 14.1172C3.71293 14.6178 4.08223 15.0816 4.49996 15.4994C4.91705 15.9165 5.38009 16.2854 5.87977 16.5982C7.10518 17.3652 8.52078 17.7778 10 17.7778C14.2955 17.7778 17.7778 14.2955 17.7778 10C17.7778 5.70445 14.2955 2.22222 10 2.22222C7.92072 2.22222 5.9825 3.04378 4.55327 4.44671L6.10857 4.44824C6.72222 4.44824 7.21968 4.9457 7.21968 5.55935C7.21968 6.12917 6.79074 6.5988 6.23815 6.66299L6.10857 6.67046H1.66257C1.09275 6.67046 0.623114 6.24153 0.55893 5.68893L0.551455 5.55935V1.11501C0.551455 0.501363 1.04892 0.00390132 1.66257 0.00390132C2.23238 0.00390132 2.70202 0.432835 2.7662 0.985434L2.77368 1.11501L2.77321 3.08717C4.629 1.1462 7.2173 0 10 0ZM9.16667 4.44444C9.58833 4.44444 9.93718 4.75815 9.99239 5.16475L10 5.27778V10H12.5C12.96 10 13.3333 10.3733 13.3333 10.8333C13.3333 11.255 13.0196 11.6038 12.613 11.6591L12.5 11.6667H9.16667C8.745 11.6667 8.39616 11.353 8.34095 10.9464L8.33333 10.8333V5.27778C8.33333 4.81778 8.70667 4.44444 9.16667 4.44444Z" fill="#7C7B98"/>
</svg>
